<?xml version="1.0" encoding="utf-8"?>
<!-- Generator: Adobe Illustrator 25.0.0, SVG Export Plug-In . SVG Version: 6.00 Build 0)  -->
<svg version="1.1" id="Capa_1" xmlns="http://www.w3.org/2000/svg" xmlns:xlink="http://www.w3.org/1999/xlink" x="0px" y="0px"
	 viewBox="0 0 100 100" style="enable-background:new 0 0 100 100;" xml:space="preserve">
<style type="text/css">
	.st0{fill:#063C5C;}
</style>
<path class="st0" d="M28.48,77.65c-2.65,0-4.92,0.94-6.81,2.83s-2.83,4.16-2.83,6.81c0,2.65,0.94,4.92,2.83,6.81
	s4.16,2.83,6.81,2.83c2.65,0,4.92-0.94,6.81-2.83s2.83-4.16,2.83-6.81c0-2.65-0.94-4.92-2.83-6.81S31.13,77.65,28.48,77.65z"/>
<path class="st0" d="M76.72,77.65c-2.65,0-4.92,0.94-6.81,2.83c-1.89,1.89-2.83,4.16-2.83,6.81c0,2.65,0.94,4.92,2.83,6.81
	c1.89,1.89,4.16,2.83,6.81,2.83c2.65,0,4.92-0.94,6.81-2.83c1.89-1.89,2.83-4.16,2.83-6.81c0-2.65-0.94-4.92-2.83-6.81
	C81.64,78.59,79.37,77.65,76.72,77.65z"/>
<path class="st0" d="M34.78,53.53H75.2c0.63,0,1.2-0.35,1.49-0.91l12.48-23.99l-11,19.84l11-19.84l8.34-16.05
	c0.58-1.12-0.23-2.46-1.49-2.46H28.56h-0.85c-1.15,0-1.96,1.13-1.59,2.23c0.58,1.7,1.15,3.46,2.04,6.24
	c0.22,0.7,0.87,1.18,1.61,1.18h0h50.38c1.28,0,2.09,1.37,1.48,2.49L70.2,43.01c-0.3,0.54-0.86,0.87-1.48,0.87H37.02
	c-0.65,0-1.24-0.37-1.52-0.96L24.77,20.58c-3.52-7.61-1.6-3.6-4.84-10.46H19.8l-0.21-0.44c-0.13-0.16-0.25-0.32-0.4-0.47
	c0.15,0.15,0.27,0.31,0.4,0.47l-3.92-8.24c-0.28-0.59-0.87-0.96-1.52-0.96h-7c-0.6,0-1.16,0.32-1.46,0.84L2.05,7.59
	c-0.65,1.12,0.16,2.53,1.46,2.53h4.61c0.65,0,1.24,0.37,1.52,0.96L26.18,46c0.23,0.49,0.21,1.06-0.05,1.53l-6.1,11.06
	c-1.19,2.21-4.51,8.5-6.38,12.03c-0.6,1.13,0.24,2.49,1.52,2.47c4.37-0.08,10.4-0.27,13.31-0.27h56.77c0.67,0,1.28-0.4,1.55-1.02
	l2.68-6.28c0.47-1.11-0.34-2.35-1.55-2.35H31.33c-1.28,0-2.09-1.37-1.48-2.49l3.45-6.28C33.6,53.87,34.17,53.53,34.78,53.53z"/>
<path class="st0" d="M60.05,29.12h-3.38c-0.47,0-0.84-0.38-0.84-0.84v-3.33c0-0.47-0.38-0.84-0.84-0.84h-3
	c-0.47,0-0.84,0.38-0.84,0.84v3.33c0,0.47-0.38,0.84-0.84,0.84h-3.28c-0.47,0-0.84,0.38-0.84,0.84v3c0,0.47,0.38,0.84,0.84,0.84
	h3.28c0.47,0,0.84,0.38,0.84,0.84v3.33c0,0.47,0.38,0.84,0.84,0.84h3c0.47,0,0.84-0.38,0.84-0.84v-3.33c0-0.47,0.38-0.84,0.84-0.84
	h3.38c0.47,0,0.84-0.38,0.84-0.84v-3C60.9,29.49,60.52,29.12,60.05,29.12z"/>
</svg>
