<?xml version="1.0" encoding="utf-8"?>
<!-- Generator: Adobe Illustrator 25.0.0, SVG Export Plug-In . SVG Version: 6.00 Build 0)  -->
<svg version="1.1" id="Capa_1" xmlns="http://www.w3.org/2000/svg" xmlns:xlink="http://www.w3.org/1999/xlink" x="0px" y="0px"
	 viewBox="0 0 100 100" style="enable-background:new 0 0 100 100;" xml:space="preserve">
<style type="text/css">
	.st0{fill:#063C5C;}
</style>
<path class="st0" d="M28.24,77.79c-2.65,0-4.92,0.94-6.8,2.83c-1.89,1.89-2.83,4.15-2.83,6.8c0,2.65,0.94,4.92,2.83,6.8
	c1.89,1.89,4.15,2.83,6.8,2.83c2.65,0,4.92-0.94,6.8-2.83c1.89-1.89,2.83-4.15,2.83-6.8c0-2.65-0.94-4.92-2.83-6.8
	C33.15,78.73,30.89,77.79,28.24,77.79z"/>
<path class="st0" d="M76.4,77.79c-2.65,0-4.92,0.94-6.8,2.83c-1.89,1.89-2.83,4.15-2.83,6.8c0,2.65,0.94,4.92,2.83,6.8
	c1.89,1.89,4.15,2.83,6.8,2.83c2.65,0,4.92-0.94,6.8-2.83c1.89-1.89,2.83-4.15,2.83-6.8c0-2.65-0.94-4.92-2.83-6.8
	C81.32,78.73,79.05,77.79,76.4,77.79z"/>
<path class="st0" d="M34.53,53.7h40.36c0.63,0,1.2-0.35,1.49-0.91l12.46-23.96L77.85,48.65l10.99-19.81l8.33-16.03
	c0.58-1.12-0.23-2.46-1.49-2.46H28.31h-0.85c-1.15,0-1.96,1.13-1.59,2.22c0.58,1.7,1.15,3.46,2.04,6.24c0.22,0.7,0.87,1.18,1.6,1.18
	h0h50.31c1.28,0,2.09,1.37,1.47,2.49L69.9,43.2c-0.3,0.54-0.86,0.87-1.47,0.87H36.76c-0.65,0-1.24-0.37-1.52-0.95L24.53,20.8
	c-3.52-7.6-1.6-3.59-4.84-10.45h-0.13l-0.21-0.44c-0.13-0.16-0.25-0.32-0.4-0.47c0.14,0.14,0.27,0.31,0.4,0.47l-3.91-8.23
	c-0.28-0.59-0.87-0.96-1.52-0.96H6.94c-0.6,0-1.15,0.32-1.45,0.84L1.85,7.83C1.2,8.95,2.01,10.35,3.3,10.35h4.61
	c0.65,0,1.24,0.37,1.52,0.96l16.52,34.87c0.23,0.49,0.21,1.06-0.05,1.53l-6.09,11.05c-1.19,2.2-4.51,8.48-6.37,12.02
	c-0.6,1.13,0.24,2.48,1.51,2.46c4.36-0.08,10.38-0.27,13.29-0.27h56.69c0.67,0,1.28-0.4,1.55-1.02l2.68-6.27
	c0.47-1.11-0.34-2.34-1.55-2.34H31.08c-1.28,0-2.09-1.37-1.47-2.49l3.45-6.27C33.35,54.04,33.92,53.7,34.53,53.7z"/>
</svg>
