<svg width="390" height="293" viewBox="0 0 390 293" fill="none" xmlns="http://www.w3.org/2000/svg">
<path d="M97.0576 26.3199C102.809 10.5177 117.829 0 134.646 0H333.241C360.902 0 380.214 27.4029 370.911 53.4525L294.846 266.452C289.161 282.373 274.081 293 257.176 293H57.1247C29.3614 293 10.0417 265.409 19.5367 239.32L97.0576 26.3199Z" fill="#003C5D"/>
<g clip-path="url(#clip0_155_203)">
<path d="M93.0099 143.6C93.0099 138.92 92.9799 134.25 93.0199 129.57C93.0399 127.09 93.9099 126.02 96.3499 125.63C100.82 124.92 105.33 124.41 109.79 123.63C114.13 122.87 118.55 122.84 122.63 120.44C138.04 111.35 154.82 106.39 172.65 105.31C190.67 104.22 208.43 105.83 225.26 112.81C233.66 116.3 241.65 120.79 249.83 124.81C250.59 125.18 251.41 125.53 252.23 125.63C254.15 125.86 256.09 125.89 258.01 126.05C269.54 127.05 280.33 130.48 290.33 136.25C295.63 139.31 298.48 144.04 297.81 150.83C297.29 156.1 297.13 161.4 297.67 166.67C298.21 171.93 297.78 173.52 293.96 173.6C291.09 173.66 288.21 173.7 285.35 173.58C283.87 173.52 283.21 174.02 282.54 175.38C278.79 183.03 272.43 187.13 264.04 187.18C255.51 187.23 249.18 183 245.44 175.24C244.86 174.04 244.3 173.58 242.95 173.58C213.7 173.62 184.45 173.62 155.2 173.59C153.92 173.59 153.25 173.88 152.68 175.18C149.1 183.3 140.22 188.24 131.52 187.04C123.99 186 118.66 181.95 115.36 175.13C115.08 174.55 114.56 173.89 114 173.67C109.43 171.87 104.71 170.41 100.24 168.38C95.7099 166.32 93.2399 162.47 93.0899 157.43C92.9499 152.83 93.0599 148.21 93.0599 143.61C93.0399 143.6 93.0299 143.6 93.0099 143.6ZM188.92 166.47H243.36C243.77 159.55 246.64 153.89 252.3 149.85C256.22 147.05 260.68 145.77 265.51 146.16C275.17 146.94 283.95 154.51 284.69 166.44H291.37C291.37 163.13 291.39 159.87 291.36 156.62C291.34 154.15 291.34 151.68 291.21 149.22C291.02 145.68 288.99 143.37 285.99 141.73C274.83 135.62 262.85 132.57 250.17 132.51C230.2 132.41 210.24 132.48 190.27 132.48C189.88 132.48 189.49 132.52 188.92 132.54V166.47ZM181.75 166.5V132.47C180.96 132.47 180.25 132.47 179.54 132.47C168.59 132.47 157.63 132.38 146.68 132.53C143.89 132.57 141.84 131.79 140.03 129.71C138.23 127.65 136.14 125.86 134.27 123.86C133.41 122.94 132.7 122.67 131.55 123.37C130.02 124.3 128.26 124.9 126.81 125.94C122.98 128.7 118.62 129.56 114.07 130.07C109.38 130.6 104.72 131.39 99.9699 132.07V135.76H108.33C109.29 135.76 110.06 136.54 110.06 137.49V140.98C110.06 141.94 109.28 142.71 108.33 142.71H99.8799C99.8799 144.5 99.8799 146.07 99.8799 147.64C99.8799 150.51 99.8499 153.38 99.8899 156.26C99.9199 158.68 100.7 160.85 102.97 161.93C106.32 163.52 109.79 164.85 113.25 166.31C115.99 153.26 122.88 146.39 133.28 146.12C139.04 145.97 144.04 147.92 148.18 151.83C152.32 155.75 154.45 160.7 154.65 166.49H181.75V166.5ZM147.62 166.67C147.6 159.17 141.44 153 134.03 153.07C126.53 153.14 120.31 159.35 120.4 166.71C120.49 174.24 126.57 180.26 134.06 180.25C141.63 180.23 147.64 174.21 147.62 166.67ZM264.13 153.06C256.69 152.95 250.51 159.05 250.47 166.57C250.43 174.14 256.38 180.2 263.92 180.23C271.5 180.27 277.53 174.34 277.6 166.78C277.67 159.31 271.65 153.18 264.13 153.06ZM145.17 124.98C145.53 125.31 146.08 125.61 146.54 125.61C158.22 125.64 169.91 125.64 181.76 125.64V112.02C167.38 111.82 153.55 114.33 139.71 119.77C141.69 121.67 143.4 123.36 145.17 124.98ZM188.91 125.51H236.55C221.4 117.38 205.77 112.98 188.91 112.21V125.51Z" fill="#EFB814"/>
<path d="M199.05 137.68V140.96C199.05 141.92 199.83 142.7 200.79 142.7H210.9C211.86 142.7 212.64 141.92 212.64 140.96V137.68C212.64 136.72 211.86 135.94 210.9 135.94H200.79C199.83 135.95 199.05 136.72 199.05 137.68Z" fill="#EFB814"/>
</g>
<defs>
<clipPath id="clip0_155_203">
<rect width="204.91" height="82.22" fill="white" transform="translate(93 105)"/>
</clipPath>
</defs>
</svg>
