<svg width="390" height="293" viewBox="0 0 390 293" fill="none" xmlns="http://www.w3.org/2000/svg">
<path d="M97.0576 26.3199C102.809 10.5177 117.829 0 134.646 0H333.241C360.902 0 380.214 27.4029 370.911 53.4525L337.683 146.5L294.846 266.453C289.161 282.373 274.081 293 257.176 293H57.1247C29.3615 293 10.0417 265.409 19.5367 239.32L97.0576 26.3199Z" fill="#003C5D"/>
<g clip-path="url(#clip0_155_200)">
<path d="M289.54 182.95C285.65 194.05 278.19 200.42 266.36 200.3C253.94 200.17 246.47 193.28 243.07 181.47C242.26 181.47 241.48 181.47 240.71 181.47C211.6 181.47 182.49 181.49 153.38 181.43C151.4 181.43 150.61 181.94 150.01 183.93C147.06 193.75 138.49 200.08 128.21 200.34C117.59 200.6 108.92 194.86 105.25 185.13C105.01 184.48 104.77 183.83 104.46 182.96C101.04 182.96 97.57 182.98 94.09 182.95C88.73 182.91 85.21 179.58 85.03 174.24C84.95 171.8 85 169.34 85.33 166.94C85.5 165.63 86.05 164 87 163.25C89.15 161.58 89.04 159.48 89.03 157.22C89 148.77 89.01 140.31 89.03 131.85C89.04 125.77 91.73 123.05 97.77 123.05C120.26 123.04 142.74 123.04 165.23 123.04C166.36 123.04 167.48 123.04 169.04 123.04C169.04 121.68 168.96 120.49 169.05 119.32C169.54 113.26 169.71 107.14 170.7 101.15C171.84 94.28 173.92 92.98 180.89 92.47C191.26 91.71 201.58 91.73 211.87 93.5C218.69 94.67 224.19 98.22 229.08 102.76C233.81 107.14 238.55 111.58 242.63 116.54C246.26 120.96 250.69 122.7 256.05 123.46C267.15 125.04 278.25 126.67 289.25 128.77C293.16 129.52 296.93 131.43 300.52 133.29C303.65 134.91 305.12 137.84 305.03 141.53C304.78 151.81 304.69 162.09 304.41 172.37C304.35 174.52 303.91 176.69 303.36 178.78C302.6 181.69 300.88 182.9 297.84 182.94C295.14 182.98 292.44 182.95 289.54 182.95ZM177.13 159.83C197.7 159.83 218.2 159.83 238.88 159.83C239.04 157.23 239.18 154.81 239.34 152.39C239.88 144.23 240.46 136.07 240.93 127.9C240.98 127.06 240.6 125.95 240.03 125.36C234.28 119.42 228.58 113.43 222.6 107.72C219.12 104.4 214.98 102.08 210.04 101.27C200.78 99.76 191.51 99.8 182.19 100.31C178.51 100.51 178.23 100.63 177.93 104.34C177.59 108.5 177.19 112.67 177.17 116.85C177.08 131.12 177.13 145.39 177.13 159.83ZM168.84 160.01C168.84 150.2 168.84 140.82 168.84 131.3C144.83 131.3 120.95 131.3 97.01 131.3C97.01 140.91 97.01 150.36 97.01 160.01C101.06 160.01 104.96 160.1 108.86 159.95C109.95 159.91 111.2 159.41 112.05 158.72C121.12 151.23 133.94 151.28 143.01 158.89C143.57 159.36 144.31 159.95 144.96 159.96C152.86 160.04 160.77 160.01 168.84 160.01ZM282.51 135.33C271.41 133.69 260.3 132.04 248.99 130.37C248.27 140.2 247.56 149.97 246.78 160.59C248.59 159.82 250.05 159.57 251.02 158.74C264.34 147.48 284.97 153.97 289.37 170.87C290.47 175.1 290.47 175.11 294.89 174.89C295.23 174.87 295.57 174.78 296.39 174.65C296.7 167.79 297.02 160.89 297.35 153.71C293.72 153.71 290.49 153.95 287.33 153.6C285.94 153.45 283.77 152.35 283.5 151.28C282.18 146.19 280.83 141 282.51 135.33ZM238.48 168.14C217.84 168.14 197.44 168.14 177.03 168.14C177.03 170.02 177.03 171.72 177.03 173.43C197.59 173.43 217.98 173.43 238.48 173.43C238.48 171.62 238.48 169.99 238.48 168.14ZM282.1 177.1C282.12 167.98 275.31 161.06 266.37 161.13C257.56 161.2 250.74 168.07 250.65 176.98C250.56 185.39 257.76 192.5 266.38 192.52C275.1 192.54 282.08 185.69 282.1 177.1ZM127.32 192.52C136.04 192.56 143.05 185.75 143.15 177.15C143.26 168.15 136.34 161.11 127.42 161.12C118.6 161.13 111.86 167.9 111.68 176.92C111.52 185.33 118.69 192.48 127.32 192.52ZM150.97 173.39C157.04 173.39 162.96 173.39 168.75 173.39C168.75 171.48 168.75 169.8 168.75 168.09C162.31 168.09 156.1 168.09 149.7 168.09C150.13 169.9 150.53 171.55 150.97 173.39ZM93.24 168.1C93.24 170.49 93.24 172.55 93.24 174.76C96.74 174.76 100.11 174.76 103.63 174.76C104.15 172.59 104.67 170.43 105.22 168.1C101.18 168.1 97.31 168.1 93.24 168.1ZM296.91 145.74C297.58 140.76 297.13 139.75 293.69 138.47C291.51 137.65 289.72 138.85 289.82 141.15C289.88 142.67 290.16 144.18 290.34 145.74C292.69 145.74 294.81 145.74 296.91 145.74Z" fill="#EFB814"/>
<path d="M208.79 133.81C201.65 133.81 194.52 133.83 187.38 133.8C184.35 133.79 182.65 132.25 182.7 129.44C182.8 122.74 182.98 116.05 183.2 109.36C183.24 108.16 183.51 106.94 183.82 105.78C184.35 103.81 185.71 102.48 187.75 102.56C194.08 102.82 200.44 102.94 206.7 103.77C211.02 104.35 215.01 106.48 218.05 109.76C223.13 115.25 228.05 120.88 232.99 126.49C234.25 127.92 234.97 129.55 233.99 131.51C232.97 133.54 231.21 133.85 229.17 133.83C222.36 133.78 215.58 133.81 208.79 133.81ZM221.72 125.76C214.47 114.51 204.81 108.61 191.13 110.79C191.13 115.67 191.13 120.66 191.13 125.76C201.39 125.76 211.46 125.76 221.72 125.76Z" fill="#EFB814"/>
</g>
<defs>
<clipPath id="clip0_155_200">
<rect width="220.03" height="108.34" fill="white" transform="translate(85 92)"/>
</clipPath>
</defs>
</svg>
