<svg width="24" height="44" viewBox="0 0 24 44" fill="none" xmlns="http://www.w3.org/2000/svg">
<g clip-path="url(#clip0_8_9)">
<path d="M23.3135 19.4059L22.754 23.8803C22.6593 24.6277 22.0237 25.19 21.2698 25.19H13.9945V43.8973C13.2271 43.9663 12.4495 44.0017 11.6635 44.0017C9.90552 44.0017 8.1898 43.8266 6.53156 43.4933V25.19H0.93308C0.41921 25.19 0 24.7708 0 24.2574V18.6585C0 18.1451 0.41921 17.7259 0.93308 17.7259H6.52987V9.32925C6.52987 4.17645 10.7068 0 15.8607 0H22.3905C22.9044 0 23.3236 0.41916 23.3236 0.932589V6.53149C23.3236 7.04492 22.9044 7.46408 22.3905 7.46408H17.7251C15.6646 7.46408 13.9945 9.13398 13.9945 11.1961V17.7276H21.831C22.7303 17.7259 23.425 18.5154 23.3135 19.4059Z" fill="white"/>
</g>
<defs>
<clipPath id="clip0_8_9">
<rect width="23.3253" height="44" fill="white"/>
</clipPath>
</defs>
</svg>
