<svg width="264" height="149" viewBox="0 0 264 149" fill="none" xmlns="http://www.w3.org/2000/svg">
<g clip-path="url(#clip0_8_83)">
<path d="M186.752 4.76904L179.187 12.339C176.072 11.9511 172.899 11.7644 169.669 11.7644C157.007 11.7644 145.064 14.824 134.512 20.2249C147.217 8.61865 163.798 1.19235 182.101 0.129395L186.752 4.76904Z" fill="white"/>
<path d="M216.138 12.3963L201.768 18.7166C195.696 15.9443 189.207 13.9333 182.417 12.7985L190.399 4.78328L185.661 0C185.992 0 186.307 0 186.638 0C195.782 0 204.568 1.59443 212.707 4.51036L216.138 12.3963Z" fill="white"/>
<path d="M204.869 20.2106L219.512 13.7467L216.124 5.81763C224.823 9.40868 232.719 14.5367 239.481 20.8857L240.959 32.8367L224.694 34.7759C218.952 28.9296 212.248 24.0027 204.869 20.2106Z" fill="white"/>
<path d="M258.086 47.7036L254.454 58.7066L238.26 53.3631C235.188 47.4737 231.37 42.0297 226.948 37.1459L243.816 35.1061L242.495 23.8877C249.085 30.7394 254.396 38.7977 258.086 47.7036Z" fill="white"/>
<path d="M248.037 117.787L253.937 115.574C246.472 128.703 235.274 139.433 221.809 146.328C232.705 136.388 240.744 123.374 244.563 108.651L248.037 117.787Z" fill="white"/>
<path d="M263.584 85.467C262.608 94.9474 259.909 103.925 255.817 112.084L249.558 114.483L245.596 104.069C246.544 99.2422 247.032 94.2579 247.032 89.1586C247.032 86.1852 246.859 83.2549 246.544 80.3677L257.597 91.4856L263.584 85.467Z" fill="white"/>
<path d="M264 77.3943C264 78.7445 263.971 80.0804 263.9 81.4163L257.583 87.8371L245.912 76.0153C244.749 69.221 242.711 62.7284 239.897 56.6524L256.076 61.9671L259.579 51.5818C262.435 59.6545 264 68.3448 264 77.3943Z" fill="white"/>
<path d="M63.0499 43.7822L59.9491 61.4358H32.0848L30.3765 71.261H50.417L47.4166 88.0096H27.3762L22.6675 114.77H0.430664L12.9631 43.7822H63.0499Z" fill="white"/>
<path d="M98.1781 60.7894C101.753 58.8215 105.313 57.8303 108.844 57.8303L104.739 81.5887H98.4222C94.216 81.5887 90.986 82.3213 88.7465 83.8008C86.507 85.266 85.0571 87.8803 84.3824 91.615L80.291 114.77H58.0398L68.06 58.2182H90.3112L88.5024 68.6466C91.3736 65.3715 94.6036 62.7572 98.1781 60.7894Z" fill="white"/>
<path d="M112.649 71.0024C115.448 66.6213 118.821 63.2745 122.769 60.9762C126.717 58.6779 130.88 57.5144 135.287 57.5144C138.962 57.5144 142.006 58.2613 144.403 59.7696C146.801 61.2778 148.48 63.3319 149.413 65.9318L150.82 58.2039H172.971L162.951 114.756H140.8L142.207 107.028C140.341 109.642 137.929 111.696 134.986 113.19C132.043 114.698 128.741 115.445 125.066 115.445C119.381 115.445 114.816 113.535 111.342 109.728C107.868 105.922 106.131 100.636 106.131 93.8846C106.131 91.3421 106.361 88.8715 106.835 86.4583C107.911 80.5546 109.849 75.3835 112.649 71.0024ZM146.011 84.0882C146.011 81.8187 145.408 80.0662 144.202 78.8165C142.996 77.5812 141.36 76.9636 139.293 76.9636C136.895 76.9636 134.771 77.7967 132.933 79.4773C131.096 81.1435 129.904 83.4849 129.373 86.5014C129.244 87.1047 129.172 87.9091 129.172 88.9002C129.172 91.1698 129.775 92.9222 130.981 94.1719C132.187 95.4072 133.823 96.0249 135.89 96.0249C138.302 96.0249 140.412 95.1917 142.25 93.5111C144.087 91.8449 145.265 89.5035 145.81 86.487C145.954 85.8981 146.011 85.0937 146.011 84.0882Z" fill="white"/>
<path d="M235.203 62.585C238.145 65.7595 239.61 70.1263 239.61 75.6708C239.61 77.6818 239.409 79.779 239.007 81.9911L233.193 114.77H211.042L216.354 84.7921C216.483 83.7292 216.555 82.9822 216.555 82.58C216.555 80.5116 215.966 78.9028 214.803 77.768C213.626 76.6332 212.018 76.0587 209.937 76.0587C207.539 76.0587 205.501 76.8343 203.821 78.3569C202.156 79.8939 201.05 82.0055 200.519 84.6772L195.208 114.756H172.957L182.977 58.204H205.228L203.721 66.7219C205.931 64.0502 208.63 61.8956 211.832 60.258C215.033 58.6205 218.607 57.8018 222.555 57.8018C228.053 57.8305 232.26 59.4105 235.203 62.585Z" fill="white"/>
<path d="M21.5047 122.613C23.5719 124.423 24.6055 126.922 24.6055 130.14C24.6055 131.145 24.5194 132.122 24.3471 133.07C23.8734 135.756 22.8972 138.083 21.433 140.051C19.9687 142.019 18.1024 143.527 15.8343 144.562C13.5661 145.596 11.0108 146.127 8.154 146.127H0L4.66558 119.927H12.8196C16.552 119.898 19.4375 120.803 21.5047 122.613ZM16.8392 140.712C18.9494 138.873 20.2845 136.317 20.8587 133.056C21.0166 132.151 21.0884 131.303 21.0884 130.499C21.0884 128.014 20.3563 126.089 18.8777 124.725C17.399 123.36 15.217 122.671 12.3458 122.671H7.60848L3.90473 143.47H8.64209C12.0013 143.47 14.7289 142.551 16.8392 140.712Z" fill="white"/>
<path d="M32.5012 125.5L28.8549 146.099H25.4382L29.0846 125.5H32.5012ZM30.0464 121.608C29.6875 121.249 29.5009 120.789 29.5009 120.229C29.5009 119.482 29.7736 118.835 30.3335 118.289C30.879 117.744 31.525 117.485 32.2428 117.485C32.817 117.485 33.2764 117.657 33.6353 118.017C33.9942 118.376 34.1665 118.835 34.1665 119.41C34.1665 120.157 33.8937 120.803 33.3338 121.349C32.7883 121.895 32.1423 122.153 31.4245 122.153C30.8647 122.153 30.4053 121.981 30.0464 121.608Z" fill="white"/>
<path d="M50.6324 126.161C51.8957 126.822 52.8575 127.755 53.5323 128.948C54.1926 130.14 54.5228 131.505 54.5228 133.027C54.5228 133.559 54.4654 134.191 54.3362 134.938C54.2357 135.584 54.0778 136.273 53.8481 136.963H37.3822C37.3247 137.466 37.3104 137.825 37.3104 138.055C37.3104 139.778 37.8272 141.129 38.8752 142.091C39.9088 143.053 41.2725 143.542 42.9522 143.542C44.4308 143.542 45.7228 143.197 46.8425 142.508C47.9623 141.818 48.8092 140.899 49.3835 139.75H53.0729C52.1685 141.732 50.7903 143.341 48.9241 144.576C47.0579 145.811 44.9045 146.443 42.4497 146.443C39.8657 146.443 37.7985 145.696 36.2337 144.203C34.669 142.709 33.8794 140.669 33.8794 138.098C33.8794 137.365 33.9512 136.589 34.1091 135.771C34.4823 133.645 35.2432 131.777 36.406 130.169C37.5544 128.56 38.9756 127.325 40.6696 126.463C42.3636 125.601 44.2011 125.17 46.1678 125.17C47.8761 125.17 49.3691 125.5 50.6324 126.161ZM50.9913 133.099C50.9913 131.49 50.4889 130.255 49.4696 129.379C48.4504 128.502 47.1296 128.057 45.5075 128.057C43.7561 128.057 42.1626 128.632 40.7414 129.766C39.3058 130.901 38.344 132.481 37.8415 134.492H50.8765C50.9482 133.99 50.9913 133.53 50.9913 133.099Z" fill="white"/>
<path d="M57.681 144.906C56.3028 143.887 55.6138 142.508 55.6138 140.769C55.6138 140.439 55.6281 140.209 55.6568 140.051H59.0017C58.9012 141.129 59.217 142.005 59.9635 142.68C60.6957 143.355 61.7723 143.7 63.1792 143.7C64.586 143.7 65.7201 143.427 66.5815 142.895C67.4428 142.35 67.8735 141.603 67.8735 140.626C67.8735 139.793 67.5146 139.146 66.8255 138.672C66.1221 138.198 65.0454 137.681 63.5955 137.135C62.3178 136.661 61.2699 136.202 60.4373 135.785C59.6046 135.354 58.9012 134.765 58.327 134.004C57.7528 133.243 57.4656 132.266 57.4656 131.088C57.4656 129.939 57.7958 128.905 58.4562 128C59.1165 127.095 60.0497 126.405 61.2412 125.917C62.4327 125.429 63.7965 125.184 65.3182 125.184C67.4284 125.184 69.1511 125.716 70.5006 126.764C71.85 127.813 72.5247 129.192 72.5247 130.901C72.5247 131.232 72.5103 131.476 72.4816 131.648H69.2085L69.2516 131.203C69.2516 130.197 68.864 129.407 68.1032 128.818C67.3423 128.23 66.3231 127.928 65.0741 127.928C63.8395 127.928 62.8347 128.201 62.0451 128.761C61.2555 129.307 60.8679 130.054 60.8679 130.973C60.8679 131.849 61.2268 132.539 61.959 133.042C62.6911 133.544 63.8108 134.09 65.3469 134.693C66.6245 135.196 67.6581 135.656 68.4333 136.072C69.2085 136.489 69.8689 137.064 70.4288 137.782C70.9886 138.5 71.2614 139.419 71.2614 140.525C71.2614 141.732 70.9025 142.78 70.1847 143.685C69.4669 144.59 68.4908 145.28 67.2418 145.754C65.9929 146.228 64.5717 146.472 62.9926 146.472C60.8249 146.443 59.0591 145.926 57.681 144.906Z" fill="white"/>
<path d="M91.2874 126.161C92.5507 126.822 93.5125 127.755 94.1872 128.948C94.8476 130.14 95.1778 131.505 95.1778 133.027C95.1778 133.559 95.1203 134.191 94.9911 134.938C94.8907 135.584 94.7327 136.273 94.5031 136.963H78.0371C77.9797 137.466 77.9654 137.825 77.9654 138.055C77.9654 139.778 78.4822 141.129 79.5301 142.091C80.5637 143.053 81.9275 143.542 83.6071 143.542C85.0858 143.542 86.3778 143.197 87.4975 142.508C88.6172 141.818 89.4642 140.899 90.0385 139.75H93.7278C92.8234 141.732 91.4453 143.341 89.5791 144.576C87.7128 145.811 85.5451 146.443 83.0903 146.443C80.5063 146.443 78.4391 145.696 76.8743 144.203C75.3096 142.709 74.52 140.669 74.52 138.098C74.52 137.365 74.5918 136.589 74.7497 135.771C75.123 133.645 75.8838 131.777 77.0466 130.169C78.1951 128.56 79.6163 127.325 81.3102 126.463C83.0042 125.601 84.8417 125.17 86.8084 125.17C88.5311 125.17 90.0241 125.5 91.2874 126.161ZM91.6463 133.099C91.6463 131.49 91.1438 130.255 90.1246 129.379C89.1053 128.502 87.7846 128.057 86.1624 128.057C84.411 128.057 82.8176 128.632 81.3964 129.766C79.9752 130.901 78.999 132.481 78.4965 134.492H91.5314C91.6032 133.99 91.6463 133.53 91.6463 133.099Z" fill="white"/>
<path d="M104.724 118.289L99.8004 146.113H96.3838L101.308 118.289H104.724Z" fill="white"/>
<path d="M169.439 132.883C164.731 130.47 160.439 127.583 156.548 124.308H131.928C137.67 131.231 144.877 137.149 153.39 141.502C177.005 153.582 204.352 150.551 224.479 136.015C207.137 142.522 187.226 141.99 169.439 132.883Z" fill="white"/>
<path d="M139.723 40.9668C144.805 31.0124 152.012 22.8535 160.496 16.72C145.107 22.4944 131.742 33.799 123.674 49.5853C123.659 49.614 123.659 49.6284 123.645 49.6571H136.034C137.053 46.7268 138.273 43.8109 139.723 40.9668Z" fill="white"/>
</g>
<defs>
<clipPath id="clip0_8_83">
<rect width="264" height="149" fill="white"/>
</clipPath>
</defs>
</svg>
