<svg width="44" height="44" viewBox="0 0 44 44" fill="none" xmlns="http://www.w3.org/2000/svg">
<g clip-path="url(#clip0_8_24)">
<path d="M33.3795 0H10.6205C4.75613 0 0 4.75613 0 10.6205V33.3795C0 39.2439 4.75613 44 10.6205 44H33.3795C39.2439 44 44 39.2439 44 33.3795V10.6205C44 4.75613 39.2418 0 33.3795 0ZM40.2065 32.6195C40.2065 36.8078 36.8078 40.2065 32.6195 40.2065H11.3784C7.19014 40.2065 3.79139 36.8078 3.79139 32.6195V11.3784C3.79139 7.19014 7.19014 3.79139 11.3784 3.79139H32.6195C36.8078 3.79139 40.2065 7.19014 40.2065 11.3784V32.6195Z" fill="white"/>
<path d="M22.0222 10.6206C15.7419 10.6206 10.6438 15.7187 10.6438 21.999C10.6438 28.2793 15.7419 33.3774 22.0222 33.3774C28.3025 33.3774 33.4006 28.2793 33.4006 21.999C33.4006 15.7187 28.3025 10.6206 22.0222 10.6206ZM22.0222 29.586C17.8424 29.586 14.4352 26.1788 14.4352 21.999C14.4352 17.8192 17.8424 14.412 22.0222 14.412C26.202 14.412 29.6092 17.8192 29.6092 21.999C29.6092 26.1788 26.202 29.586 22.0222 29.586Z" fill="white"/>
<path d="M34.1584 12.1383C35.4152 12.1383 36.4341 11.1194 36.4341 9.86259C36.4341 8.60577 35.4152 7.58691 34.1584 7.58691C32.9015 7.58691 31.8827 8.60577 31.8827 9.86259C31.8827 11.1194 32.9015 12.1383 34.1584 12.1383Z" fill="white"/>
</g>
<defs>
<clipPath id="clip0_8_24">
<rect width="44" height="44" fill="white"/>
</clipPath>
</defs>
</svg>
