<svg width="390" height="293" viewBox="0 0 390 293" fill="none" xmlns="http://www.w3.org/2000/svg">
<path d="M97.0576 26.3199C102.809 10.5177 117.829 0 134.646 0H333.241C360.902 0 380.214 27.4029 370.911 53.4525L294.846 266.452C289.161 282.373 274.081 293 257.176 293H57.1247C29.3614 293 10.0417 265.409 19.5367 239.32L97.0576 26.3199Z" fill="#003C5D"/>
<g clip-path="url(#clip0_155_202)">
<path d="M134 120.83C134.87 118.86 136.37 118.15 138.53 118.19C144.02 118.29 149.52 118.26 155.01 118.21C158.94 118.18 162.04 119.74 164.02 123.08C165.08 124.86 166.29 125.42 168.34 125.39C176.91 125.26 185.49 125.32 194.07 125.35C194.88 125.35 195.35 125.11 195.78 124.42C196.71 122.91 197.74 121.46 198.73 119.98C199.54 118.76 200.65 118.19 202.12 118.2C205.6 118.23 209.07 118.21 212.65 118.21C212.65 115.87 212.65 113.56 212.65 111.09C211.63 111.09 210.58 111.09 209.53 111.09C207.2 111.08 205.65 109.67 205.63 107.57C205.61 105.42 207.17 103.94 209.58 104C213.44 104.11 217.35 103.94 221.15 104.53C231.23 106.09 239.85 115.27 240.91 125.44C241.29 129.04 241.17 132.7 241.17 136.33C241.17 138.17 239.59 139.53 237.61 139.57C232.36 139.69 227.38 140.85 222.74 143.37C222.57 143.46 222.4 143.57 222.12 143.74C223.12 145.24 224.07 146.73 225.11 148.14C225.26 148.34 225.95 148.27 226.32 148.13C232.17 145.96 237.96 146.11 243.53 148.92C250.14 152.26 254.13 157.67 255.17 165.03C256.79 176.48 249.27 186.89 237.96 189.06C226.14 191.33 214.57 183 212.96 171.04C212.04 164.23 214.01 158.34 218.64 153.3C218.8 153.13 218.97 152.96 219.13 152.78C219.18 152.72 219.22 152.65 219.33 152.48C218.36 151.04 217.36 149.55 216.31 147.99C213.72 150.3 211.74 152.92 210.11 155.82C208.29 159.05 207.16 162.53 206.58 166.17C205.63 172.11 200.89 175.3 195.87 175.18C189.43 175.03 182.99 175.16 176.55 175.12C175.73 175.11 175.39 175.39 175.09 176.11C171.49 184.81 162.87 190.08 153.49 189.34C143.81 188.58 135.58 180.81 134.24 171.18C134.2 170.92 134.08 170.66 134 170.4C134 168.74 134 167.08 134 165.42C134.08 165.25 134.2 165.09 134.23 164.91C135.39 157.81 139.17 152.56 145.45 149.11C148.21 147.59 151.23 146.89 154.56 146.63C152.97 144.25 151.48 141.99 149.94 139.76C149.77 139.52 149.34 139.4 149.01 139.34C142.52 138.18 137.97 134.54 135.36 128.53C134.72 127.07 134.44 125.46 134 123.91C134 122.88 134 121.86 134 120.83ZM233.95 132.61C235.43 122.7 228.55 112.45 219.85 111.62C219.85 114.9 219.86 118.17 219.85 121.45C219.84 123.91 218.43 125.32 215.95 125.33C212.27 125.34 208.6 125.36 204.92 125.31C204.07 125.3 203.58 125.55 203.11 126.27C199.09 132.37 195.01 138.43 190.99 144.53C190.01 146.02 188.79 146.74 186.96 146.71C182.65 146.64 178.34 146.62 174.04 146.72C172.04 146.77 170.7 146.03 169.62 144.37C165.9 138.69 162.07 133.08 158.36 127.39C157.42 125.95 156.27 125.26 154.55 125.32C152.42 125.4 150.28 125.34 148.15 125.34C146.07 125.34 144 125.34 141.86 125.34C141.92 125.58 141.92 125.7 141.97 125.8C143.78 129.92 146.98 132.11 151.41 132.4C153.18 132.52 154.32 133.31 155.25 134.73C159.01 140.43 162.85 146.08 166.58 151.8C167.53 153.26 168.71 153.86 170.42 153.82C173.5 153.75 176.59 153.87 179.67 153.77C181.8 153.7 183.16 154.57 184.06 156.47C185.58 159.67 187.23 162.81 188.79 166C189.48 167.4 190.55 168.06 192.1 168.03C193.44 168.01 194.79 168.05 196.13 168.02C198.03 167.98 199.05 167.12 199.43 165.27C199.6 164.42 199.74 163.56 199.94 162.72C202.5 151.72 208.63 143.33 218.36 137.6C223.17 134.79 228.37 133.19 233.95 132.61ZM229.45 154.67C230.33 155.99 231.13 157.2 231.94 158.41C233.61 160.9 235.32 163.37 236.95 165.89C238.39 168.11 237.5 170.69 235.09 171.44C233.51 171.94 232.01 171.36 230.93 169.75C228.46 166.1 226.01 162.43 223.54 158.75C219.32 163.01 218.42 170.72 222.64 176.41C227.03 182.32 234.98 183.97 241.24 180.28C247.5 176.59 250.01 168.8 247.06 162.28C244.01 155.54 236.71 152.34 229.45 154.67ZM156.38 154.01C150.97 153.22 143.8 156.87 141.72 164.06C139.65 171.21 143.47 178.75 150.43 181.35C157.49 183.99 164.98 180.2 167.42 175.14C166.99 175.14 166.61 175.14 166.23 175.14C163.78 175.14 161.33 175.18 158.88 175.13C152.63 175.02 147.96 170.03 148.24 163.8C148.45 159.39 151.34 155.83 156.38 154.01ZM181.77 167.98C180.68 165.81 179.63 163.76 178.64 161.67C178.36 161.08 178.03 160.89 177.39 160.89C174.51 160.93 171.62 160.91 168.74 160.91C165.54 160.91 162.34 160.87 159.14 160.92C156.4 160.96 154.69 163.39 155.64 165.78C156.21 167.22 157.56 168.02 159.46 168.03C166.57 168.04 173.68 168.03 180.8 168.03C181.06 168.03 181.32 168 181.77 167.98ZM170.37 132.5C171.92 134.82 173.32 136.97 174.78 139.07C174.97 139.35 175.48 139.54 175.85 139.55C178.85 139.59 181.85 139.6 184.85 139.54C185.29 139.53 185.87 139.18 186.13 138.81C187.3 137.18 188.39 135.48 189.5 133.81C189.76 133.41 190.02 133.01 190.34 132.51C183.59 132.5 177.09 132.5 170.37 132.5Z" fill="#EFB814"/>
</g>
<defs>
<clipPath id="clip0_155_202">
<rect width="121.39" height="85.42" fill="white" transform="translate(134 104)"/>
</clipPath>
</defs>
</svg>
