<svg width="37" height="44" viewBox="0 0 37 44" fill="none" xmlns="http://www.w3.org/2000/svg">
<g clip-path="url(#clip0_8_18)">
<path d="M25.9719 31.8629V12.8962C25.9719 12.8962 28.1252 16.4603 35.9083 16.678C36.3234 16.6895 36.6668 16.3505 36.6668 15.9382V10.5786C36.6668 10.1798 36.3467 9.86383 35.9451 9.84071C29.908 9.50164 27.0408 4.90302 26.7595 0.685844C26.7343 0.296685 26.3909 0 25.9952 0H19.8398C19.4305 0 19.0968 0.329436 19.0968 0.737861V30.8861C19.0968 34.1612 16.5768 37.0106 13.2828 37.1647C9.51741 37.3419 6.45619 34.1323 6.92178 30.339C7.25157 27.6592 9.41653 25.4649 12.1092 25.093C12.6446 25.0198 13.1664 25.0141 13.6727 25.0699C14.1209 25.12 14.5147 24.7887 14.5147 24.3417V18.9686C14.5147 18.5872 14.2217 18.2558 13.8376 18.2327C13.0655 18.1826 12.2741 18.1999 11.4709 18.2905C5.53279 18.959 0.741152 23.731 0.0835152 29.63C-0.783635 37.4113 5.32715 43.9981 12.9879 43.9981C20.1599 43.9981 25.9739 38.2243 25.9739 31.1019" fill="white"/>
</g>
<defs>
<clipPath id="clip0_8_18">
<rect width="36.6667" height="44" fill="white"/>
</clipPath>
</defs>
</svg>
