<svg width="44" height="44" viewBox="0 0 44 44" fill="none" xmlns="http://www.w3.org/2000/svg">
<g clip-path="url(#clip0_8_29)">
<path d="M21.268 0.0109307C9.94537 0.379687 0.595558 9.54881 0.0276731 20.8623C-0.176987 24.9407 0.722779 28.796 2.47253 32.1425L0.0147666 43.1499C-0.0884852 43.6477 0.352179 44.0884 0.85 43.9851L11.8574 41.5274H11.8647C15.1891 43.2642 19.0039 44.164 23.0528 43.9759C34.3478 43.4523 43.5464 34.1725 43.9834 22.8738C44.4776 10.0761 34.0473 -0.40392 21.268 0.0109307ZM22 39.4476C18.7992 39.4476 15.8012 38.5828 13.2236 37.0728C12.9802 36.9363 12.7461 36.7925 12.5174 36.6395L5.48527 38.5128L7.35855 31.4806C5.58299 28.75 4.55231 25.4957 4.55231 21.998C4.55231 12.379 12.381 4.55032 22 4.55032C31.619 4.55032 39.4477 12.379 39.4477 21.998C39.4477 31.617 31.619 39.4476 22 39.4476Z" fill="white"/>
<path d="M32.3473 29.6813C32.0431 30.1385 31.7241 30.5645 31.2134 31.0733C30.0961 32.1907 28.5436 32.7549 26.969 32.5945C24.148 32.305 20.1396 30.747 16.6936 27.3083C13.2476 23.8623 11.6896 19.8539 11.4075 17.033C11.2471 15.4584 11.8113 13.9077 12.9286 12.7886C13.4375 12.2797 13.8634 11.9589 14.3207 11.6473C15.1651 11.0775 16.3138 11.4574 16.6328 12.4161L17.7888 15.8843C18.1078 16.8357 17.964 17.4367 17.5528 17.8387L16.6328 18.7679C16.1755 19.2252 16.0999 19.9314 16.4502 20.479C16.9591 21.2773 17.9179 22.5551 19.6824 24.3196C21.4469 26.0841 22.7246 27.0428 23.523 27.5517C24.0706 27.902 24.7786 27.8264 25.234 27.3692L26.1633 26.4491C26.5671 26.038 27.1681 25.8942 28.1177 26.2131L31.5858 27.3692C32.5446 27.6882 32.9263 28.8368 32.3473 29.6813Z" fill="white"/>
</g>
<defs>
<clipPath id="clip0_8_29">
<rect width="44" height="44" fill="white"/>
</clipPath>
</defs>
</svg>
